<svg width="136" height="136" viewBox="0 0 136 136" fill="none" xmlns="http://www.w3.org/2000/svg">
<rect width="136" height="136" fill="url(#paint0_linear_104:16)"/>
<path d="M31.6447 31.6447C24.652 38.6373 19.89 47.5464 17.9607 57.2455C16.0315 66.9445 17.0216 76.9979 20.806 86.1342C24.5904 95.2705 30.999 103.079 39.2215 108.573C47.4439 114.068 57.1109 117 67 117C76.8891 117 86.5561 114.068 94.7785 108.573C103.001 103.079 109.41 95.2705 113.194 86.1342C116.978 76.9979 117.969 66.9445 116.039 57.2455C114.11 47.5464 109.348 38.6373 102.355 31.6447L91.7487 42.2513C96.6436 47.1461 99.977 53.3825 101.327 60.1718C102.678 66.9612 101.985 73.9985 99.3358 80.3939C96.6867 86.7893 92.2007 92.2556 86.445 96.1014C80.6892 99.9473 73.9223 102 67 102C60.0777 102 53.3108 99.9473 47.555 96.1014C41.7993 92.2556 37.3133 86.7893 34.6642 80.3939C32.0152 73.9985 31.322 66.9612 32.6725 60.1718C34.023 53.3825 37.3564 47.1461 42.2513 42.2513L31.6447 31.6447Z" fill="white"/>
<path d="M99.1394 28.6978C90.2304 21.2222 78.9941 17.0861 67.3645 17.0013C55.7349 16.9165 44.4396 20.8884 35.4225 28.2332L44.8957 39.8633C51.2077 34.7219 59.1145 31.9416 67.2552 32.0009C75.3959 32.0603 83.2613 34.9556 89.4976 40.1885L99.1394 28.6978Z" fill="white"/>
<path d="M58 28H76V69C76 73.9706 71.9706 78 67 78C62.0294 78 58 73.9706 58 69V28Z" fill="white"/>
<path d="M114.489 103.882C117.418 106.811 117.418 111.56 114.489 114.489C111.56 117.418 106.811 117.418 103.882 114.489L93 103.607L103.607 92.9999L114.489 103.882Z" fill="white"/>
<defs>
<linearGradient id="paint0_linear_104:16" x1="141.667" y1="-3.4" x2="-9.63334" y2="150.167" gradientUnits="userSpaceOnUse">
<stop stop-color="#57E67F"/>
<stop offset="1" stop-color="#3DC4AB"/>
</linearGradient>
</defs>
</svg>
